<mxfile host="app.diagrams.net" modified="2024-04-15T03:32:48.617Z" agent="Mozilla/5.0 (X11; Linux x86_64) AppleWebKit/537.36 (KHTML, like Gecko) Chrome/121.0.0.0 Safari/537.36" version="24.2.5" etag="QQHFWmeML3Zqo7XWLNcz" type="github">
  <diagram name="Page-1" id="ZqbdJ2ur37i0oBi2eDNE">
    <mxGraphModel>
      <root>
        <mxCell id="0" />
        <mxCell id="1" parent="0" />
      </root>
    </mxGraphModel>
  </diagram>
</mxfile>
